<mxfile host="app.diagrams.net" modified="2021-10-21T17:01:31.858Z" agent="5.0 (X11)" etag="HsVTRDfW1hatAgqMvHiJ" version="15.5.8" type="github">
  <diagram id="ZLh4_oyzpoWPXUUwP1M5" name="Page-1">
    <mxGraphModel dx="379" dy="229" grid="1" gridSize="10" guides="1" tooltips="1" connect="1" arrows="1" fold="1" page="1" pageScale="1" pageWidth="827" pageHeight="1169" math="0" shadow="0">
      <root>
        <mxCell id="0" />
        <mxCell id="1" parent="0" />
        <mxCell id="G_fPqYavjqKXH2ZwGwjU-1" value="ESCUDERÍA" style="rounded=0;whiteSpace=wrap;html=1;" vertex="1" parent="1">
          <mxGeometry x="200" y="310" width="120" height="60" as="geometry" />
        </mxCell>
        <mxCell id="G_fPqYavjqKXH2ZwGwjU-4" style="edgeStyle=orthogonalEdgeStyle;rounded=0;orthogonalLoop=1;jettySize=auto;html=1;entryX=1;entryY=0.5;entryDx=0;entryDy=0;endArrow=doubleBlock;endFill=1;" edge="1" parent="1" source="G_fPqYavjqKXH2ZwGwjU-2" target="G_fPqYavjqKXH2ZwGwjU-1">
          <mxGeometry relative="1" as="geometry" />
        </mxCell>
        <mxCell id="G_fPqYavjqKXH2ZwGwjU-5" style="edgeStyle=orthogonalEdgeStyle;rounded=0;orthogonalLoop=1;jettySize=auto;html=1;endArrow=doubleBlock;endFill=1;" edge="1" parent="1" source="G_fPqYavjqKXH2ZwGwjU-2" target="G_fPqYavjqKXH2ZwGwjU-3">
          <mxGeometry relative="1" as="geometry" />
        </mxCell>
        <mxCell id="G_fPqYavjqKXH2ZwGwjU-20" style="edgeStyle=none;rounded=0;orthogonalLoop=1;jettySize=auto;html=1;exitX=1;exitY=1;exitDx=0;exitDy=0;entryX=0.5;entryY=1;entryDx=0;entryDy=0;endArrow=none;endFill=0;" edge="1" parent="1" source="G_fPqYavjqKXH2ZwGwjU-1" target="G_fPqYavjqKXH2ZwGwjU-17">
          <mxGeometry relative="1" as="geometry" />
        </mxCell>
        <mxCell id="G_fPqYavjqKXH2ZwGwjU-21" style="edgeStyle=none;rounded=0;orthogonalLoop=1;jettySize=auto;html=1;exitX=0;exitY=0;exitDx=0;exitDy=0;entryX=0.5;entryY=1;entryDx=0;entryDy=0;endArrow=none;endFill=0;" edge="1" parent="1" source="G_fPqYavjqKXH2ZwGwjU-2" target="G_fPqYavjqKXH2ZwGwjU-18">
          <mxGeometry relative="1" as="geometry" />
        </mxCell>
        <mxCell id="G_fPqYavjqKXH2ZwGwjU-2" value="Patrocina" style="rhombus;whiteSpace=wrap;html=1;" vertex="1" parent="1">
          <mxGeometry x="360" y="320" width="80" height="40" as="geometry" />
        </mxCell>
        <mxCell id="G_fPqYavjqKXH2ZwGwjU-3" value="PATROCINADOR" style="rounded=0;whiteSpace=wrap;html=1;" vertex="1" parent="1">
          <mxGeometry x="480" y="310" width="120" height="60" as="geometry" />
        </mxCell>
        <mxCell id="G_fPqYavjqKXH2ZwGwjU-10" style="edgeStyle=orthogonalEdgeStyle;rounded=0;orthogonalLoop=1;jettySize=auto;html=1;exitX=0.5;exitY=0;exitDx=0;exitDy=0;endArrow=none;endFill=0;" edge="1" parent="1" source="G_fPqYavjqKXH2ZwGwjU-6" target="G_fPqYavjqKXH2ZwGwjU-1">
          <mxGeometry relative="1" as="geometry" />
        </mxCell>
        <mxCell id="G_fPqYavjqKXH2ZwGwjU-6" value="nom" style="ellipse;whiteSpace=wrap;html=1;" vertex="1" parent="1">
          <mxGeometry x="240" y="400" width="40" height="30" as="geometry" />
        </mxCell>
        <mxCell id="G_fPqYavjqKXH2ZwGwjU-12" style="edgeStyle=none;rounded=0;orthogonalLoop=1;jettySize=auto;html=1;exitX=0.5;exitY=0;exitDx=0;exitDy=0;entryX=0.25;entryY=1;entryDx=0;entryDy=0;endArrow=none;endFill=0;" edge="1" parent="1" source="G_fPqYavjqKXH2ZwGwjU-7" target="G_fPqYavjqKXH2ZwGwjU-1">
          <mxGeometry relative="1" as="geometry" />
        </mxCell>
        <mxCell id="G_fPqYavjqKXH2ZwGwjU-7" value="pressupost" style="ellipse;whiteSpace=wrap;html=1;" vertex="1" parent="1">
          <mxGeometry x="170" y="400" width="70" height="30" as="geometry" />
        </mxCell>
        <mxCell id="G_fPqYavjqKXH2ZwGwjU-11" style="rounded=0;orthogonalLoop=1;jettySize=auto;html=1;exitX=0.5;exitY=0;exitDx=0;exitDy=0;entryX=0.75;entryY=1;entryDx=0;entryDy=0;endArrow=none;endFill=0;" edge="1" parent="1" source="G_fPqYavjqKXH2ZwGwjU-8" target="G_fPqYavjqKXH2ZwGwjU-1">
          <mxGeometry relative="1" as="geometry" />
        </mxCell>
        <mxCell id="G_fPqYavjqKXH2ZwGwjU-8" value="logotip" style="ellipse;whiteSpace=wrap;html=1;" vertex="1" parent="1">
          <mxGeometry x="280" y="400" width="50" height="30" as="geometry" />
        </mxCell>
        <mxCell id="G_fPqYavjqKXH2ZwGwjU-15" style="edgeStyle=none;rounded=0;orthogonalLoop=1;jettySize=auto;html=1;exitX=0.5;exitY=1;exitDx=0;exitDy=0;entryX=0.5;entryY=0;entryDx=0;entryDy=0;endArrow=doubleBlock;endFill=1;" edge="1" parent="1" source="G_fPqYavjqKXH2ZwGwjU-13" target="G_fPqYavjqKXH2ZwGwjU-1">
          <mxGeometry relative="1" as="geometry" />
        </mxCell>
        <mxCell id="G_fPqYavjqKXH2ZwGwjU-16" style="edgeStyle=none;rounded=0;orthogonalLoop=1;jettySize=auto;html=1;exitX=0.5;exitY=0;exitDx=0;exitDy=0;entryX=0.5;entryY=1;entryDx=0;entryDy=0;endArrow=classic;endFill=1;" edge="1" parent="1" source="G_fPqYavjqKXH2ZwGwjU-13" target="G_fPqYavjqKXH2ZwGwjU-14">
          <mxGeometry relative="1" as="geometry" />
        </mxCell>
        <mxCell id="G_fPqYavjqKXH2ZwGwjU-13" value="Pertany" style="rhombus;whiteSpace=wrap;html=1;" vertex="1" parent="1">
          <mxGeometry x="220" y="220" width="80" height="40" as="geometry" />
        </mxCell>
        <mxCell id="G_fPqYavjqKXH2ZwGwjU-14" value="PAIS" style="rounded=0;whiteSpace=wrap;html=1;" vertex="1" parent="1">
          <mxGeometry x="200" y="110" width="120" height="60" as="geometry" />
        </mxCell>
        <mxCell id="G_fPqYavjqKXH2ZwGwjU-17" value="total_patr" style="ellipse;whiteSpace=wrap;html=1;" vertex="1" parent="1">
          <mxGeometry x="330" y="400" width="70" height="30" as="geometry" />
        </mxCell>
        <mxCell id="G_fPqYavjqKXH2ZwGwjU-18" value="dob_patr" style="ellipse;whiteSpace=wrap;html=1;" vertex="1" parent="1">
          <mxGeometry x="330" y="280" width="70" height="30" as="geometry" />
        </mxCell>
        <mxCell id="G_fPqYavjqKXH2ZwGwjU-26" style="edgeStyle=none;rounded=0;orthogonalLoop=1;jettySize=auto;html=1;exitX=0.5;exitY=0;exitDx=0;exitDy=0;entryX=0;entryY=1;entryDx=0;entryDy=0;endArrow=none;endFill=0;dashed=1;" edge="1" parent="1" source="G_fPqYavjqKXH2ZwGwjU-25" target="G_fPqYavjqKXH2ZwGwjU-1">
          <mxGeometry relative="1" as="geometry" />
        </mxCell>
        <mxCell id="G_fPqYavjqKXH2ZwGwjU-25" value="percentatge_del _total" style="ellipse;whiteSpace=wrap;html=1;" vertex="1" parent="1">
          <mxGeometry x="60" y="400" width="110" height="30" as="geometry" />
        </mxCell>
      </root>
    </mxGraphModel>
  </diagram>
</mxfile>
